<?xml version="1.0" encoding="UTF-8"?>
<svg version="1.1" xmlns="http://www.w3.org/2000/svg" width="458" height="458">
<path d="M0 0 C151.14 0 302.28 0 458 0 C458 151.14 458 302.28 458 458 C306.86 458 155.72 458 0 458 C0 306.86 0 155.72 0 0 Z " fill="#FEFEFE" transform="translate(0,0)"/>
<path d="M0 0 C-0.00888245 0.79354385 -0.01776489 1.58708771 -0.0269165 2.40467834 C-0.10766697 9.94935369 -0.16826732 17.4938142 -0.20724869 25.03881168 C-0.22796437 28.91612008 -0.25598112 32.79306609 -0.30175781 36.67016602 C-0.34579755 40.42442223 -0.36925687 44.17833395 -0.37950897 47.9328289 C-0.38679779 49.35231373 -0.40102457 50.77178358 -0.42292023 52.19111824 C-0.60850385 64.74099432 0.54967087 81.06842951 9.6328125 90.73828125 C15.43670745 96.00198684 20.360217 97.31858676 28.11767578 97.16455078 C32.46579333 96.91631842 36.66224792 96.24685767 40.9375 95.4375 C42.38672852 95.17296021 42.38672852 95.17296021 43.86523438 94.90307617 C47.24569721 94.28007086 50.62267365 93.63977997 54 93 C55.31516231 92.75562121 56.63043316 92.51182595 57.94580078 92.26855469 C80.32125433 88.1236237 102.48579631 83.25803621 124.63085938 78.02832031 C131.72337437 76.35523604 138.8288821 74.73849009 145.93237305 73.11279297 C151.31149305 71.8744533 156.67738854 70.59352475 162.03515625 69.265625 C163.76886475 68.83866333 163.76886475 68.83866333 165.53759766 68.40307617 C167.75130853 67.85576851 169.96333582 67.30159065 172.17333984 66.73950195 C173.15641113 66.49675537 174.13948242 66.25400879 175.15234375 66.00390625 C176.01851318 65.78549072 176.88468262 65.5670752 177.77709961 65.34204102 C180 65 180 65 183 66 C181.74062622 66.648479 181.74062622 66.648479 180.45581055 67.31005859 C160.16157118 77.75382114 160.16157118 77.75382114 139.94213867 88.34130859 C133.47658225 91.75683228 126.9896702 95.13055077 120.5 98.5 C113.11483473 102.33507603 105.73566463 106.18059193 98.375 110.0625 C86.61881791 116.26254041 74.82937765 122.39869289 63.04296875 128.54101562 C60.11182071 130.06870669 57.18086747 131.59677074 54.25 133.125 C53.29633545 133.62209473 52.3426709 134.11918945 51.36010742 134.63134766 C46.04751014 137.4026228 40.74320824 140.18887711 35.44628906 142.98999023 C28.66153967 146.57623476 21.85902663 150.12006581 15 153.5625 C14.00238647 154.06475098 14.00238647 154.06475098 12.98461914 154.57714844 C5.83859862 158.13843161 -0.05720251 158.67577439 -8 158 C-13.62710549 155.58838336 -16.53018001 151.44862315 -19 146 C-23.22324565 134.09949707 -24.60703296 121.48886636 -26 109 C-26.09788818 108.1236792 -26.19577637 107.2473584 -26.29663086 106.34448242 C-29.80137204 71.8692095 -25.63861317 32.60274729 -6 3 C-3.5010989 0 -3.5010989 0 0 0 Z " fill="#D43337" transform="translate(136,265)"/>
<path d="M0 0 C1.75570312 0.01353516 1.75570312 0.01353516 3.546875 0.02734375 C4.43890625 0.03894531 5.3309375 0.05054687 6.25 0.0625 C6.25 4.0625 6.25 4.0625 4.89916992 5.48779297 C4.26599854 5.92236816 3.63282715 6.35694336 2.98046875 6.8046875 C2.26592529 7.30621338 1.55138184 7.80773926 0.81518555 8.32446289 C-0.3617688 9.12291626 -0.3617688 9.12291626 -1.5625 9.9375 C-3.21933759 11.09942299 -4.87556795 12.26221225 -6.53125 13.42578125 C-7.39234375 14.02471191 -8.2534375 14.62364258 -9.140625 15.24072266 C-21.37813396 23.78453739 -33.17309306 32.50107901 -43.75 43.0625 C-44.45511719 43.75601563 -45.16023438 44.44953125 -45.88671875 45.1640625 C-52.24384543 51.86593575 -57.03160255 59.9341972 -57.375 69.3125 C-56.73892201 79.71981866 -51.28751417 85.32144598 -43.75 92.0625 C-41.051092 94.32687185 -38.32016332 96.54391517 -35.5703125 98.74609375 C-32.70614967 101.09851558 -29.97514219 103.5508661 -27.25 106.0625 C-22.43920706 110.48029859 -17.4699219 114.63492838 -12.38720703 118.734375 C-9.094557 121.40541827 -5.83201116 124.11323103 -2.5625 126.8125 C9.70378684 136.9204879 22.02224784 146.94999468 34.54980469 156.73291016 C36.23629209 158.05178011 37.91952693 159.37467704 39.6015625 160.69921875 C44.7302444 164.7373996 49.86398438 168.76788644 55.02734375 172.76171875 C55.84170898 173.39231201 56.65607422 174.02290527 57.49511719 174.67260742 C59.09461148 175.91028089 60.69547327 177.14618959 62.29785156 178.38012695 C63.02842773 178.94562256 63.75900391 179.51111816 64.51171875 180.09375 C65.48564575 180.84495117 65.48564575 180.84495117 66.47924805 181.61132812 C68.18257565 183.00724419 69.72302998 184.47753632 71.25 186.0625 C66.0648008 184.45922623 61.20245383 182.3457738 56.26171875 180.125 C55.38308167 179.73294373 54.50444458 179.34088745 53.59918213 178.93695068 C51.7026298 178.09045095 49.80662139 177.24273176 47.91110229 176.3939209 C42.82360951 174.11601231 37.73196182 171.84742562 32.640625 169.578125 C31.08111366 168.88266571 31.08111366 168.88266571 29.49009705 168.17315674 C19.40668587 163.67964978 9.29978328 159.24055821 -0.8125 154.8125 C-14.20318466 148.94643069 -27.57681486 143.04406028 -40.92904663 137.0909729 C-49.81113801 133.13118938 -58.70489046 129.19997598 -67.6171875 125.30859375 C-68.53558411 124.9071817 -69.45398071 124.50576965 -70.40020752 124.0921936 C-74.85600054 122.14482631 -79.31325403 120.20096225 -83.7734375 118.26367188 C-91.09359525 115.07454348 -98.39376996 111.85034694 -105.5703125 108.34765625 C-106.62750488 107.83211182 -107.68469727 107.31656738 -108.77392578 106.78540039 C-113.85166337 103.84581104 -118.25546145 100.5219278 -120.75 95.0625 C-122.15783657 87.4449037 -120.70687967 81.32582622 -116.72265625 74.7890625 C-113.13600741 69.8316746 -108.96585338 65.48234629 -104.75 61.0625 C-103.68023417 59.79777684 -102.61705943 58.52743024 -101.5625 57.25 C-78.29565926 30.6748206 -37.02264402 -0.37022644 0 0 Z " fill="#CC5A38" transform="translate(148.75,111.9375)"/>
<path d="M0 0 C4.02643232 1.2664505 7.74764062 2.74945187 11.52026367 4.63867188 C12.57964645 5.16682495 13.63902924 5.69497803 14.73051453 6.23913574 C15.86487442 6.80990845 16.99923431 7.38068115 18.16796875 7.96875 C19.36926349 8.56999535 20.57070796 9.17094165 21.77229309 9.77160645 C24.29434947 11.0334155 26.81504523 12.2978888 29.3347168 13.56445312 C32.50310562 15.15701732 35.67400052 16.74450547 38.84589672 18.3300705 C41.33433504 19.57442855 43.8217078 20.82090481 46.30877113 22.06800842 C48.02653576 22.92917839 49.74484517 23.78926143 51.46318054 24.64929199 C57.20535411 27.53702523 62.91452572 30.47405437 68.59354305 33.48361492 C79.14776884 39.07673825 89.80610087 44.4377495 100.51259232 49.73274803 C104.70587828 51.80789528 108.89511677 53.89115649 113.084692 55.97378254 C120.83625472 59.82690357 128.58948757 63.67658229 136.34912109 67.51342773 C141.79593549 70.20705847 147.23775672 72.9105484 152.67646408 75.62050819 C154.732601 76.64273797 156.79053941 77.66135307 158.85036087 78.67613792 C161.72740588 80.09402928 164.59789661 81.5244551 167.46728516 82.95776367 C168.30274872 83.36572174 169.13821228 83.77367981 169.99899292 84.19400024 C178.43536093 88.44107005 187.42564519 93.81613142 191 103 C192.29300808 108.99485563 190.83730913 113.57202604 187.6640625 118.6953125 C184.45904417 123.13418765 180.79680268 127.06471211 177 131 C176.55237305 131.4734082 176.10474609 131.94681641 175.64355469 132.43457031 C168.56623051 139.90644915 161.05340523 146.46287314 152.82080078 152.63232422 C150.98269723 154.0129968 149.16117243 155.41370699 147.33984375 156.81640625 C128.447266 171.20398427 107.76206058 180.50845357 85 187 C84.07832031 187.26941406 83.15664063 187.53882813 82.20703125 187.81640625 C74.03379748 189.82806275 65.35476692 189.16381896 57 189 C57 188.01 57 187.02 57 186 C62.58203295 180.72644782 70.17828101 177.08157797 76.75 173.1875 C106.38044611 156.15721096 106.38044611 156.15721096 125 129 C126.20984545 121.50080533 125.70833983 115.13986196 121.3671875 108.8046875 C113.95256068 100.01970061 105.52671766 92.07044445 96.80615234 84.59838867 C94.96067951 82.96520259 93.22531833 81.25898561 91.5 79.5 C88.53264677 76.48586418 85.42654708 73.70082667 82.22265625 70.94140625 C79.67023117 68.71195939 77.18112486 66.41998618 74.6875 64.125 C71.06476095 60.81663086 67.38307109 57.63987642 63.5625 54.5625 C59.56773566 51.34054925 55.75468333 47.99322017 52 44.5 C47.47011346 40.28974225 42.79707608 36.3236197 37.98046875 32.4453125 C34.4270879 29.52995678 30.96290387 26.52172809 27.5 23.5 C19.07383855 16.15906619 10.49709912 9.05734995 1.58203125 2.3125 C1.05996094 1.879375 0.53789062 1.44625 0 1 C0 0.67 0 0.34 0 0 Z " fill="#359750" transform="translate(208,145)"/>
<path d="M0 0 C1.1034375 -0.01675781 2.206875 -0.03351562 3.34375 -0.05078125 C8.09736336 0.49635494 10.63184392 2.46604783 14 5.75 C30.28966212 26.78868587 29.57908063 65.21214624 28.5 90.3125 C28.4680957 91.11526367 28.43619141 91.91802734 28.40332031 92.74511719 C27.39850382 113.33097297 21.71525805 141.21797148 7.875 157.1875 C6.5 158.3125 6.5 158.3125 4.5 158.3125 C4.48786972 157.4328508 4.48786972 157.4328508 4.47549438 156.53543091 C4.38828345 150.33641756 4.28875663 144.13768231 4.18261719 137.93896484 C4.14473682 135.63692967 4.1098193 133.33484349 4.078125 131.03271484 C4.92520101 97.20559103 4.92520101 97.20559103 -8.9765625 67.7890625 C-14.66716166 62.74047965 -19.72555187 61.91611747 -27.08544922 62.05810547 C-33.37438011 62.52665016 -39.43528714 63.9420249 -45.5625 65.375 C-47.09364258 65.72439801 -48.6248123 66.07367705 -50.15600586 66.42285156 C-87.07057511 74.93050889 -123.75198006 84.57710379 -160.19140625 94.921875 C-161.3139254 95.24022308 -161.3139254 95.24022308 -162.4591217 95.56500244 C-167.2275305 96.92596213 -171.96337107 98.36809943 -176.66772461 99.93847656 C-178.5 100.3125 -178.5 100.3125 -181.5 99.3125 C-180.80777344 98.9314209 -180.11554688 98.5503418 -179.40234375 98.15771484 C-165.98409987 90.76132778 -152.63326746 83.28038125 -139.42382812 75.51513672 C-132.33227599 71.35580349 -125.18391745 67.30993957 -118 63.3125 C-109.7779741 58.736836 -101.6141857 54.07679252 -93.5 49.3125 C-85.3858101 44.54820501 -77.22193609 39.88833054 -69 35.3125 C-60.69772845 30.69079013 -52.44907427 25.98999468 -44.25 21.1875 C-36.45177202 16.62074487 -28.64812094 12.06489445 -20.8125 7.5625 C-19.9452832 7.06089355 -19.07806641 6.55928711 -18.18457031 6.04248047 C-11.9836578 2.48902342 -7.30465938 0.02560044 0 0 Z " fill="#343E78" transform="translate(288.5,16.6875)"/>
<path d="M0 0 C-0.00888245 0.79354385 -0.01776489 1.58708771 -0.0269165 2.40467834 C-0.10766697 9.94935369 -0.16826732 17.4938142 -0.20724869 25.03881168 C-0.22796437 28.91612008 -0.25598112 32.79306609 -0.30175781 36.67016602 C-0.34579755 40.42442223 -0.36925687 44.17833395 -0.37950897 47.9328289 C-0.38679779 49.35231373 -0.40102457 50.77178358 -0.42292023 52.19111824 C-0.60850385 64.74099432 0.54967087 81.06842951 9.6328125 90.73828125 C15.43670745 96.00198684 20.360217 97.31858676 28.11767578 97.16455078 C32.46579333 96.91631842 36.66224792 96.24685767 40.9375 95.4375 C42.38672852 95.17296021 42.38672852 95.17296021 43.86523438 94.90307617 C47.24569721 94.28007086 50.62267365 93.63977997 54 93 C55.31516231 92.75562121 56.63043316 92.51182595 57.94580078 92.26855469 C80.32125433 88.1236237 102.48579631 83.25803621 124.63085938 78.02832031 C131.72337437 76.35523604 138.8288821 74.73849009 145.93237305 73.11279297 C151.31149305 71.8744533 156.67738854 70.59352475 162.03515625 69.265625 C163.76886475 68.83866333 163.76886475 68.83866333 165.53759766 68.40307617 C167.75130853 67.85576851 169.96333582 67.30159065 172.17333984 66.73950195 C173.15641113 66.49675537 174.13948242 66.25400879 175.15234375 66.00390625 C176.01851318 65.78549072 176.88468262 65.5670752 177.77709961 65.34204102 C180 65 180 65 183 66 C178.64819255 68.38117766 174.6496097 70.19925245 169.83422852 71.41186523 C164.41512232 72.84617352 159.21052694 74.63056747 153.96484375 76.59765625 C152.55953651 77.11770988 152.55953651 77.11770988 151.12583923 77.64826965 C149.1105872 78.39435468 147.09606378 79.14241022 145.08221436 79.89227295 C139.65406901 81.91222192 134.21912343 83.9137464 128.78515625 85.91796875 C127.65984497 86.33342957 126.53453369 86.74889038 125.37512207 87.17694092 C113.96965174 91.38586657 102.55227524 95.56136951 91.12063599 99.69869995 C88.98130761 100.47404632 86.84283635 101.25176234 84.70529175 102.03201294 C69.87080892 107.44522958 55.27460875 112.57664077 39.5625 114.75 C38.74330078 114.87503906 37.92410156 115.00007813 37.08007812 115.12890625 C24.63273212 116.93401938 14.09745998 115.60276922 3.296875 108.7578125 C0.20021727 106.38792138 -2.20980429 103.68474218 -4.625 100.63671875 C-5.92106005 98.87398179 -5.92106005 98.87398179 -8 98 C-8 101.3 -8 104.6 -8 108 C-8.33 108 -8.66 108 -9 108 C-9.03738281 107.28457031 -9.07476562 106.56914062 -9.11328125 105.83203125 C-9.55905538 99.07549398 -10.59957841 92.76164421 -12.28125 86.203125 C-17.77025099 61.74127274 -12.7555143 34.94447274 -5.85546875 11.3046875 C-5.57316406 10.21414063 -5.29085937 9.12359375 -5 8 C-5.33 7.67 -5.66 7.34 -6 7 C-6.99 7.495 -6.99 7.495 -8 8 C-5.18918919 0 -5.18918919 0 0 0 Z " fill="#BE3437" transform="translate(136,265)"/>
<path d="M0 0 C5.22469907 1.6981915 9.45353297 4.83494729 13.9453125 7.90625 C14.82006729 8.49870514 15.69482208 9.09116028 16.59608459 9.7015686 C19.44194115 11.63016457 22.28342315 13.5651053 25.125 15.5 C28.06326464 17.49326421 31.00265592 19.48485908 33.94212341 21.47634888 C35.89313938 22.79830289 37.84379321 24.12079151 39.79408264 25.44381714 C47.56412198 30.71312412 55.36592597 35.93261328 63.1875 41.125 C71.28261749 46.50651372 79.34959794 51.92126783 87.33203125 57.46875 C90.01770007 59.33320555 92.72729639 61.15764499 95.44921875 62.96875 C96.18889893 63.46511963 96.9285791 63.96148926 97.69067383 64.47290039 C99.10624743 65.42204827 100.52641232 66.36439828 101.9519043 67.29858398 C105.34544392 69.58646558 107.39574003 71.24677785 109 75 C110.4779808 76.54224083 112.00527416 78.03781611 113.5625 79.5 C120.05571725 85.8612796 127.16637976 93.18921208 130 102 C130 102.99 130 103.98 130 105 C130.66 105 131.32 105 132 105 C134.31984634 112.57691748 134.15455368 122.47098605 131.2265625 129.859375 C128.54722488 134.53541644 124.81456208 138.23891309 121 142 C120.23429687 142.76441406 119.46859375 143.52882813 118.6796875 144.31640625 C102.22689618 159.92755313 70.27196339 180 47 180 C48.16929486 176.49211541 48.75023456 176.27073426 51.83984375 174.50390625 C52.64663574 174.0339624 53.45342773 173.56401855 54.28466797 173.07983398 C55.16010254 172.57911377 56.03553711 172.07839355 56.9375 171.5625 C91.49049663 152.61244682 91.49049663 152.61244682 114 122 C114.83413819 114.47163886 114.7238331 108.16247175 110.3671875 101.8046875 C102.95256068 93.01970061 94.52671766 85.07044445 85.80615234 77.59838867 C83.96067951 75.96520259 82.22531833 74.25898561 80.5 72.5 C77.53264677 69.48586418 74.42654708 66.70082667 71.22265625 63.94140625 C68.67023117 61.71195939 66.18112486 59.41998618 63.6875 57.125 C60.06476095 53.81663086 56.38307109 50.63987642 52.5625 47.5625 C48.56773566 44.34054925 44.75468333 40.99322017 41 37.5 C36.47278949 33.29222947 31.80340558 29.32752316 26.98828125 25.453125 C22.72510963 21.95342333 18.58728922 18.31431182 14.43994141 14.67871094 C10.25273063 11.02721206 5.97303165 7.58856394 1.44140625 4.3671875 C0.96574219 3.91601562 0.49007812 3.46484375 0 3 C0 2.01 0 1.02 0 0 Z " fill="#33884C" transform="translate(219,152)"/>
<path d="M0 0 C0.66 0.33 1.32 0.66 2 1 C-6.58 9.58 -15.16 18.16 -24 27 C-24 23.39768908 -23.43128853 23.0209684 -21.03515625 20.48828125 C-20.40359619 19.81603516 -19.77203613 19.14378906 -19.12133789 18.45117188 C-18.44192139 17.74541016 -17.76250488 17.03964844 -17.0625 16.3125 C-16.3811499 15.59513672 -15.6997998 14.87777344 -14.99780273 14.13867188 C-10.21994145 9.15189593 -5.33436292 4.3947055 0 0 Z " fill="#B65B41" transform="translate(63,154)"/>
<path d="M0 0 C5.68502535 1.64566523 10.76681636 4.29032784 16 7 C16 7.66 16 8.32 16 9 C13.525 8.01 13.525 8.01 11 7 C10.67 7.66 10.34 8.32 10 9 C8.33043913 7.69118353 6.66441696 6.37785174 5 5.0625 C4.071875 4.33160156 3.14375 3.60070312 2.1875 2.84765625 C1.465625 2.23792969 0.74375 1.62820312 0 1 C0 0.67 0 0.34 0 0 Z " fill="#3A9357" transform="translate(208,145)"/>
<path d="M0 0 C0.66 0.33 1.32 0.66 2 1 C-1.45889719 5.17950077 -4.98286401 6.32762134 -10 8 C-8.7820245 4.34607349 -7.85603494 4.04168301 -4.5625 2.25 C-3.75941406 1.80140625 -2.95632812 1.3528125 -2.12890625 0.890625 C-1.07509766 0.44976562 -1.07509766 0.44976562 0 0 Z " fill="#353C69" transform="translate(125,106)"/>
<path d="M0 0 C-5.29230769 3.07692308 -5.29230769 3.07692308 -8.875 2.6875 C-9.57625 2.460625 -10.2775 2.23375 -11 2 C-6.99642627 -0.14477164 -4.43233175 -1.47744392 0 0 Z " fill="#D0484A" transform="translate(319,331)"/>
<path d="M0 0 C6.875 3.75 6.875 3.75 8 6 C4.27566618 4.7874262 0.62197194 3.49140021 -3 2 C-2.01 1.34 -1.02 0.68 0 0 Z " fill="#DD7959" transform="translate(212,292)"/>
<path d="M0 0 C3.91211733 1.15585285 6.8745041 2.35534962 10 5 C8.375 5.8125 8.375 5.8125 6 6 C3.70232365 4.54854104 1.98596134 2.89569037 0 1 C0 0.67 0 0.34 0 0 Z " fill="#53A56F" transform="translate(208,145)"/>
<path d="M0 0 C-3.96 1.98 -3.96 1.98 -8 4 C-7.67 2.68 -7.34 1.36 -7 0 C-3.98968256 -0.93423645 -3.13349732 -1.04449911 0 0 Z " fill="#ED4348" transform="translate(309,336)"/>
</svg>
